<?xml version="1.0" encoding="utf-8"?>
<!-- Generator: Adobe Illustrator 17.0.0, SVG Export Plug-In . SVG Version: 6.00 Build 0)  -->
<!DOCTYPE svg PUBLIC "-//W3C//DTD SVG 1.1//EN" "http://www.w3.org/Graphics/SVG/1.1/DTD/svg11.dtd">
<svg version="1.1" id="Capa_1" xmlns="http://www.w3.org/2000/svg" xmlns:xlink="http://www.w3.org/1999/xlink" x="0px" y="0px"
	 width="447.262px" height="190.334px" viewBox="0 0 447.262 190.334" enable-background="new 0 0 447.262 190.334"
	 xml:space="preserve">
<path fill="#FFF" d="M419.454,74.392c-0.99-0.666-2.32-1.292-3.976-1.902c-1.655-0.609-3.595-1.102-5.821-1.484
	c-2.206-0.398-4.641-0.589-7.324-0.608c-3.748,0.019-7.191,0.57-10.291,1.635c-3.101,1.085-5.783,2.607-8.047,4.584
	c-2.263,1.96-4.015,4.299-5.232,6.963c-1.236,2.681-1.864,5.631-1.883,8.845c0.019,3.977,0.933,7.495,2.739,10.539
	c1.808,3.025,4.357,5.668,7.647,7.913c3.291,2.244,7.172,4.167,11.642,5.746c3.976,1.579,7.21,3.31,9.684,5.211
	c2.472,1.883,4.28,4.034,5.401,6.431c1.142,2.416,1.712,5.193,1.693,8.332c-0.019,3.405-0.799,6.391-2.378,8.959
	c-1.579,2.549-3.842,4.547-6.811,5.973c-2.948,1.445-6.506,2.169-10.671,2.188c-2.378,0-4.66-0.248-6.905-0.724
	c-2.226-0.456-4.338-1.103-6.316-1.94c-1.979-0.837-3.766-1.826-5.384-2.929l-2.397,5.935c1.104,0.798,2.416,1.541,3.956,2.226
	c1.561,0.666,3.234,1.274,5.061,1.769c1.827,0.495,3.71,0.894,5.65,1.179c1.94,0.266,3.862,0.418,5.765,0.418
	c4.508-0.019,8.483-0.646,11.926-1.865c3.444-1.217,6.316-2.91,8.656-5.078c2.321-2.169,4.071-4.681,5.25-7.552
	c1.198-2.854,1.788-5.936,1.788-9.245c0-4.224-0.818-7.896-2.434-10.996c-1.637-3.082-4.034-5.802-7.21-8.122
	c-3.196-2.302-7.134-4.432-11.813-6.334c-3.996-1.636-7.267-3.348-9.854-5.098c-2.587-1.75-4.489-3.748-5.744-5.973
	c-1.257-2.245-1.865-4.909-1.865-7.99c-0.019-1.712,0.304-3.443,0.932-5.192c0.647-1.75,1.656-3.386,3.063-4.869
	c1.407-1.484,3.253-2.683,5.535-3.596c2.303-0.914,5.098-1.388,8.389-1.408c2.436,0.02,4.661,0.248,6.658,0.685
	c1.979,0.438,3.71,0.97,5.155,1.599c1.446,0.627,2.568,1.236,3.367,1.825L419.454,74.392L419.454,74.392z"/>
<polygon fill="#FFF" points="304.745,152.461 267.309,152.461 267.309,71.767 260.231,71.767 260.231,158.397 304.745,158.397 
	304.745,152.461 "/>
<polygon fill="#FFF" points="247.675,152.461 210.24,152.461 210.24,71.767 203.162,71.767 203.162,158.397 247.675,158.397 
	247.675,152.461 "/>
<path fill="#FFF" d="M123.496,71.767h-7.076v19.589H71.108V71.767H64.03v86.629h7.077V97.405h45.312v60.992h7.076V71.767
	L123.496,71.767z M188.668,152.461h-37.665V97.633h33.669v-5.934h-33.669V77.702h35.724v-5.934h-42.801v86.629h44.742V152.461
	L188.668,152.461z"/>
<path fill="#FFF" d="M44.627,74.392c-0.989-0.666-2.32-1.292-3.975-1.902c-1.656-0.609-3.596-1.102-5.821-1.484
	c-2.207-0.398-4.641-0.589-7.324-0.608c-3.748,0.019-7.191,0.57-10.291,1.635c-3.1,1.085-5.783,2.607-8.046,4.584
	c-2.263,1.96-4.015,4.299-5.232,6.963c-1.236,2.681-1.864,5.631-1.883,8.845c0.019,3.977,0.933,7.495,2.739,10.539
	c1.808,3.025,4.357,5.668,7.648,7.913c3.29,2.244,7.172,4.167,11.642,5.746c3.975,1.579,7.209,3.31,9.683,5.211
	c2.472,1.883,4.28,4.034,5.402,6.431c1.142,2.416,1.712,5.193,1.693,8.332c-0.019,3.405-0.799,6.391-2.378,8.959
	c-1.579,2.549-3.842,4.547-6.811,5.973c-2.948,1.445-6.506,2.169-10.671,2.188c-2.378,0-4.66-0.248-6.905-0.724
	c-2.226-0.456-4.338-1.103-6.316-1.94c-1.979-0.837-3.766-1.826-5.384-2.929L0,154.06c1.104,0.798,2.416,1.541,3.957,2.226
	c1.561,0.666,3.234,1.274,5.061,1.769c1.826,0.495,3.71,0.894,5.649,1.179c1.94,0.266,3.862,0.418,5.765,0.418
	c4.508-0.019,8.483-0.646,11.926-1.865c3.444-1.217,6.316-2.91,8.656-5.078c2.321-2.169,4.071-4.681,5.251-7.552
	c1.198-2.854,1.787-5.936,1.787-9.245c0-4.224-0.818-7.896-2.434-10.996c-1.636-3.082-4.033-5.802-7.209-8.122
	c-3.196-2.302-7.134-4.432-11.813-6.334c-3.996-1.636-7.267-3.348-9.854-5.098c-2.587-1.75-4.489-3.748-5.744-5.973
	c-1.256-2.245-1.864-4.909-1.864-7.99c-0.019-1.712,0.303-3.443,0.931-5.192c0.647-1.75,1.656-3.386,3.063-4.869
	c1.407-1.484,3.253-2.683,5.535-3.596c2.302-0.914,5.098-1.388,8.389-1.408c2.436,0.02,4.661,0.248,6.658,0.685
	c1.979,0.438,3.71,0.97,5.155,1.599c1.447,0.627,2.568,1.236,3.368,1.825L44.627,74.392L44.627,74.392z"/>
<path fill="#FFF" d="M0.529,185.824l2.352-0.37c0.131,0.944,0.501,1.666,1.106,2.172c0.6,0.501,1.445,0.754,2.533,0.754
	c1.093,0,1.906-0.226,2.434-0.668c0.528-0.447,0.795-0.97,0.795-1.567c0-0.542-0.235-0.962-0.704-1.273
	c-0.325-0.212-1.138-0.479-2.434-0.804c-1.743-0.442-2.957-0.822-3.63-1.146c-0.673-0.321-1.188-0.768-1.535-1.337
	c-0.348-0.569-0.524-1.197-0.524-1.883c0-0.628,0.145-1.205,0.433-1.739c0.285-0.537,0.677-0.979,1.169-1.332
	c0.37-0.271,0.876-0.506,1.513-0.695c0.641-0.19,1.328-0.285,2.059-0.285c1.102,0,2.068,0.163,2.903,0.479
	c0.835,0.316,1.449,0.745,1.847,1.287c0.397,0.546,0.668,1.269,0.817,2.177l-2.325,0.32c-0.108-0.723-0.415-1.287-0.921-1.693
	c-0.506-0.407-1.224-0.61-2.15-0.61c-1.092,0-1.874,0.181-2.339,0.542c-0.47,0.362-0.705,0.786-0.705,1.269
	c0,0.312,0.099,0.587,0.294,0.835c0.194,0.257,0.497,0.465,0.912,0.637c0.239,0.085,0.939,0.289,2.104,0.605
	c1.684,0.452,2.858,0.817,3.522,1.106c0.668,0.285,1.192,0.704,1.571,1.251c0.379,0.546,0.569,1.223,0.569,2.036
	c0,0.794-0.234,1.54-0.695,2.244c-0.465,0.7-1.133,1.242-2.005,1.625c-0.871,0.384-1.86,0.573-2.962,0.573
	c-1.829,0-3.219-0.379-4.177-1.138C1.4,188.438,0.791,187.314,0.529,185.824L0.529,185.824z M61.24,190.018l-4.298-14.047h2.46
	l2.235,8.109l0.831,3.016c0.036-0.154,0.28-1.12,0.727-2.898l2.235-8.227h2.447l2.104,8.145l0.704,2.687l0.804-2.714l2.407-8.118
	h2.316l-4.393,14.047h-2.47l-2.235-8.412l-0.547-2.397l-2.84,10.809H61.24L61.24,190.018z M121.843,173.367v-2.741h2.384v2.741
	H121.843L121.843,173.367z M121.843,190.018v-14.047h2.384v14.047H121.843L121.843,190.018z M171.474,190.018v-14.047h2.126v1.969
	c0.442-0.687,1.029-1.242,1.761-1.658c0.731-0.42,1.567-0.632,2.502-0.632c1.038,0,1.891,0.217,2.556,0.65
	c0.668,0.434,1.138,1.034,1.408,1.811c1.115-1.639,2.56-2.461,4.339-2.461c1.395,0,2.465,0.388,3.215,1.16
	c0.75,0.772,1.124,1.96,1.124,3.562v9.645h-2.366v-8.85c0-0.953-0.077-1.639-0.23-2.059c-0.158-0.416-0.438-0.754-0.84-1.012
	c-0.406-0.252-0.885-0.384-1.432-0.384c-0.989,0-1.806,0.33-2.461,0.989c-0.65,0.655-0.98,1.707-0.98,3.152v8.164h-2.38v-9.125
	c0-1.061-0.194-1.856-0.582-2.384c-0.389-0.528-1.021-0.795-1.906-0.795c-0.668,0-1.287,0.176-1.855,0.533
	c-0.569,0.352-0.984,0.867-1.237,1.544c-0.257,0.682-0.384,1.662-0.384,2.939v7.288H171.474L171.474,190.018z M240.253,190.018
	l-4.298-14.047h2.461l2.235,8.109l0.831,3.016c0.036-0.154,0.28-1.12,0.727-2.898l2.235-8.227h2.447l2.104,8.145l0.704,2.687
	l0.804-2.714l2.406-8.118h2.316l-4.393,14.047h-2.47l-2.235-8.412l-0.547-2.397l-2.84,10.809H240.253L240.253,190.018z
	 M310.46,185.494l2.46,0.303c-0.388,1.44-1.106,2.556-2.153,3.35c-1.052,0.79-2.393,1.187-4.023,1.187
	c-2.055,0-3.684-0.632-4.885-1.896c-1.206-1.264-1.806-3.039-1.806-5.323c0-2.366,0.609-4.199,1.824-5.504
	c1.219-1.304,2.795-1.959,4.736-1.959c1.878,0,3.413,0.641,4.601,1.919c1.192,1.278,1.788,3.079,1.788,5.396
	c0,0.144-0.005,0.356-0.014,0.637h-10.475c0.086,1.544,0.524,2.727,1.31,3.544c0.786,0.822,1.761,1.233,2.935,1.233
	c0.871,0,1.617-0.23,2.235-0.691C309.611,187.233,310.099,186.501,310.46,185.494L310.46,185.494z M302.644,181.642h7.843
	c-0.104-1.178-0.406-2.068-0.898-2.655c-0.759-0.917-1.743-1.377-2.948-1.377c-1.093,0-2.014,0.366-2.759,1.098
	C303.136,179.44,302.726,180.419,302.644,181.642L302.644,181.642z M368.701,188.284c-0.885,0.75-1.734,1.278-2.546,1.59
	c-0.817,0.307-1.693,0.46-2.628,0.46c-1.544,0-2.727-0.375-3.558-1.129c-0.827-0.754-1.242-1.72-1.242-2.89
	c0-0.691,0.154-1.318,0.47-1.887c0.311-0.569,0.722-1.025,1.228-1.368c0.51-0.343,1.079-0.605,1.716-0.781
	c0.465-0.122,1.169-0.244,2.113-0.356c1.923-0.23,3.341-0.501,4.249-0.822c0.009-0.325,0.014-0.533,0.014-0.619
	c0-0.971-0.226-1.657-0.677-2.05c-0.605-0.542-1.513-0.808-2.709-0.808c-1.12,0-1.946,0.194-2.483,0.587
	c-0.533,0.393-0.926,1.088-1.183,2.086l-2.325-0.321c0.212-0.993,0.56-1.802,1.043-2.411c0.483-0.614,1.188-1.089,2.104-1.418
	c0.917-0.33,1.978-0.497,3.188-0.497c1.201,0,2.172,0.145,2.921,0.425c0.75,0.284,1.3,0.637,1.657,1.065
	c0.352,0.429,0.596,0.967,0.74,1.621c0.077,0.406,0.117,1.138,0.117,2.194v3.175c0,2.217,0.05,3.616,0.153,4.199
	c0.1,0.587,0.303,1.151,0.601,1.689h-2.488C368.931,189.526,368.769,188.948,368.701,188.284L368.701,188.284z M368.502,182.966
	c-0.867,0.356-2.163,0.655-3.887,0.903c-0.98,0.14-1.675,0.298-2.077,0.474c-0.406,0.176-0.723,0.434-0.939,0.777
	c-0.222,0.339-0.334,0.714-0.334,1.129c0,0.636,0.244,1.165,0.723,1.589c0.479,0.42,1.183,0.632,2.109,0.632
	c0.917,0,1.734-0.198,2.447-0.601c0.714-0.401,1.242-0.953,1.576-1.648c0.257-0.537,0.384-1.332,0.384-2.379V182.966
	L368.502,182.966z M418.197,190.018v-14.047h2.14v2.126c0.546-0.993,1.052-1.652,1.517-1.968c0.461-0.316,0.971-0.479,1.526-0.479
	c0.804,0,1.616,0.257,2.447,0.768l-0.822,2.212c-0.578-0.348-1.16-0.52-1.743-0.52c-0.524,0-0.989,0.158-1.404,0.47
	c-0.416,0.316-0.709,0.75-0.885,1.305c-0.266,0.844-0.397,1.77-0.397,2.777v7.355H418.197L418.197,190.018z"/>
<path fill-rule="evenodd" clip-rule="evenodd" fill="#D1AE6E" d="M436.722,76.515c5.071,0,9.182,4.111,9.182,9.182
	c0,5.071-4.111,9.182-9.182,9.182s-9.182-4.111-9.182-9.182C427.54,80.625,431.651,76.515,436.722,76.515L436.722,76.515z
	 M436.722,75.157c5.821,0,10.54,4.719,10.54,10.54c0,5.821-4.719,10.54-10.54,10.54c-5.821,0-10.54-4.719-10.54-10.54
	C426.183,79.876,430.901,75.157,436.722,75.157L436.722,75.157z"/>
<path fill="#FFF" d="M432.065,91.614V79.828h5.647c1.136,0,1.999,0.107,2.589,0.318c0.59,0.211,1.062,0.584,1.418,1.12
	c0.353,0.538,0.528,1.131,0.528,1.778c0,0.837-0.291,1.539-0.878,2.113c-0.584,0.574-1.489,0.938-2.711,1.095
	c0.448,0.198,0.786,0.393,1.017,0.587c0.492,0.417,0.958,0.941,1.4,1.567l2.215,3.208h-2.12l-1.684-2.453
	c-0.492-0.705-0.899-1.248-1.219-1.622c-0.318-0.376-0.602-0.64-0.854-0.788c-0.252-0.151-0.507-0.255-0.768-0.316
	c-0.193-0.035-0.504-0.054-0.94-0.054h-1.955v5.232H432.065L432.065,91.614z M433.749,85.031h3.624c0.768,0,1.373-0.074,1.806-0.222
	c0.436-0.148,0.765-0.384,0.99-0.708c0.226-0.324,0.338-0.676,0.338-1.057c0-0.557-0.217-1.015-0.655-1.375
	c-0.436-0.359-1.127-0.538-2.073-0.538h-4.031V85.031L433.749,85.031z"/>
<path fill="#FFF" d="M369.833,71.767h-8.036c-1.585,3.354-3.735,6.388-6.326,8.979c-5.798,5.798-13.812,9.387-22.662,9.387
	c-8.851,0-16.866-3.589-22.662-9.387c-2.591-2.591-4.741-5.625-6.327-8.979h-8.036c1.994,5.394,5.133,10.233,9.121,14.221
	c6.358,6.358,14.881,10.549,24.366,11.393v61.015h7.076V97.382c9.483-0.844,18.007-5.035,24.366-11.393
	C364.7,82.001,367.839,77.161,369.833,71.767z"/>
<path fill-rule="evenodd" clip-rule="evenodd" fill="#D1AE6E" d="M371.507,37.745c-1.335-1.088-10.849-2.634-16.266-3.601
	c-0.341-1.676-0.871-3.282-1.556-4.803c0.199-0.101,0.388-0.177,0.542-0.186c1.645-0.089,5.009,1.737,8.301-1.461
	c2.096-2.037,1.894-5.506,4.722-7.417c0.621-0.421,1.018-0.883,0.073-1.317c-4.886-2.247-7.103,4.915-10.906,3.71
	c-2.595-0.823-3.787-0.994-6.382-0.069l-0.621,0.382c-0.823-0.868-1.713-1.672-2.663-2.402c0.204-0.451,0.434-0.819,0.674-0.973
	c1.386-0.891,5.213-0.968,6.492-5.377c0.813-2.807-1.078-5.721,0.435-8.781c0.331-0.674,0.448-1.271-0.589-1.181
	c-5.358,0.464-3.742,7.786-7.642,8.619c-2.663,0.569-3.783,1.01-5.58,3.097l-0.553,1.009c-0.905-0.299-1.834-0.544-2.785-0.729
	c-1.388-5.364-3.826-16.988-5.381-16.231c-1.088,1.335-2.634,10.849-3.601,16.266c-0.888,0.181-1.754,0.418-2.601,0.698l-0.558-1.02
	c-1.795-2.089-2.915-2.531-5.577-3.102c-3.9-0.838-2.277-8.158-7.635-8.627c-1.037-0.091-0.92,0.506-0.59,1.18
	c1.509,3.061-0.385,5.973,0.427,8.781c1.275,4.41,5.102,4.49,6.487,5.383c0.243,0.157,0.477,0.533,0.682,0.995
	c-1.039,0.801-2.01,1.686-2.897,2.651l-1.038-0.639c-2.594-0.925-3.786-0.754-6.382,0.069c-3.803,1.205-6.019-5.958-10.906-3.71
	c-0.945,0.434-0.548,0.896,0.073,1.317c2.828,1.911,2.625,5.379,4.722,7.417c3.292,3.199,6.656,1.372,8.301,1.461
	c0.282,0.015,0.662,0.219,1.059,0.507c-0.616,1.425-1.094,2.924-1.411,4.482c-5.417,0.967-14.931,2.512-16.266,3.601
	c-0.758,1.555,10.867,3.994,16.231,5.381c0.281,1.447,0.7,2.844,1.24,4.18c-0.321,0.209-0.621,0.35-0.854,0.362
	c-1.645,0.089-5.009-1.737-8.302,1.461c-2.096,2.037-1.893,5.506-4.721,7.416c-0.621,0.422-1.018,0.883-0.073,1.318
	c4.886,2.247,7.103-4.916,10.906-3.71c2.595,0.822,3.787,0.994,6.381,0.069l0.671-0.413c1.029,1.174,2.172,2.243,3.419,3.187
	c-0.075,0.089-0.151,0.17-0.229,0.22c-1.386,0.891-5.213,0.969-6.492,5.377c-0.814,2.807,1.078,5.721-0.434,8.781
	c-0.332,0.673-0.448,1.271,0.588,1.18c5.358-0.464,3.742-7.786,7.642-8.619c2.663-0.569,3.783-1.009,5.58-3.097l0.164-0.3
	c0.78,0.25,1.577,0.461,2.391,0.627c0.967,5.417,2.512,14.931,3.601,16.266c1.555,0.757,3.994-10.867,5.381-16.231
	c0.863-0.168,1.709-0.382,2.534-0.644l0.158,0.29c1.795,2.089,2.915,2.531,5.577,3.102c3.9,0.838,2.276,8.158,7.635,8.627
	c1.037,0.091,0.92-0.507,0.59-1.18c-1.51-3.061,0.385-5.973-0.427-8.781c-1.275-4.409-5.102-4.49-6.487-5.383
	c-0.072-0.046-0.142-0.124-0.212-0.204c1.167-0.879,2.247-1.868,3.226-2.95l0.238,0.147c2.594,0.925,3.786,0.753,6.381-0.069
	c3.803-1.205,6.02,5.958,10.906,3.71c0.946-0.435,0.548-0.896-0.073-1.318c-2.828-1.911-2.625-5.379-4.721-7.416
	c-3.292-3.199-6.656-1.372-8.301-1.461c-0.091-0.005-0.196-0.038-0.305-0.077c0.597-1.421,1.052-2.916,1.353-4.466
	C360.639,41.739,372.264,39.3,371.507,37.745z M355.498,41.741c0.11-0.84,0.175-1.694,0.192-2.56
	c3.848-0.321,10.092-0.51,10.822-0.177C365.629,39.468,359.351,40.992,355.498,41.741z M366.961,37.663
	c-0.373,0.301-0.285,0.297-0.746,0.329c-1.502,0.103-7.066,0.045-10.535-0.069c-0.026-0.743-0.088-1.476-0.183-2.2L366.961,37.663z
	 M364.861,21.457c-1.279,0.238-1.845,6.246-5.888,6.913c-1.214,0.2-3.853-0.917-5.853-0.193c-0.248-0.477-0.51-0.946-0.79-1.403
	c1.547-0.439,3.213-0.068,4.856-0.03c5.18,0.119,4.947-4.555,7.247-5.487c0.216-0.304,0.272-0.497,0.725-0.243L364.861,21.457z
	 M356.318,24.03c2.418,0.631,3.456-0.444,4.776-1.751l4.115-2.325c-4.116,2.36-3.525,4.925-6.653,5.669
	c-1.884,0.448-3.79-0.178-5.645-0.092c-0.491,0.023-0.885,0.116-1.237,0.236c-0.4-0.581-0.825-1.143-1.275-1.684
	C352.346,22.79,354.077,23.445,356.318,24.03z M352.899,7.126l-0.041,0.531c-0.994,0.839,1.486,6.341-1.697,8.921
	c-1.043,0.844-4.332,1.165-5.516,3.199c-0.456-0.31-0.927-0.598-1.406-0.875c1.115-1.456,2.954-1.984,4.566-2.853
	c4.561-2.458,2.047-6.405,3.585-8.353C352.426,7.324,352.38,7.129,352.899,7.126z M346.707,14.12
	c2.414-0.648,2.784-2.096,3.284-3.884l2.426-4.056c-2.41,4.087-0.627,6.023-2.978,8.218c-1.415,1.322-3.381,1.72-4.951,2.713
	c-0.618,0.391-1.01,0.807-1.292,1.226c-0.585-0.299-1.184-0.573-1.797-0.822C342.414,15.044,344.329,14.758,346.707,14.12z
	 M333.08,5.03c0.464,0.883,1.988,7.16,2.737,11.014c-0.84-0.11-1.694-0.175-2.56-0.192C332.936,12.003,332.747,5.76,333.08,5.03z
	 M331.739,4.581c0.301,0.373,0.297,0.285,0.329,0.746c0.103,1.502,0.045,7.066-0.069,10.535c-0.743,0.026-1.476,0.088-2.2,0.183
	L331.739,4.581z M315.615,10.22c0.499,1.789,0.867,3.237,3.281,3.887c2.381,0.642,4.298,0.929,5.309,3.412
	c-0.612,0.248-1.209,0.523-1.793,0.821c-0.281-0.423-0.676-0.845-1.3-1.24c-1.569-0.994-3.535-1.395-4.949-2.717
	c-2.348-2.197-0.564-4.131-2.97-8.221L315.615,10.22z M314.439,16.561c-3.181-2.583-0.696-8.083-1.689-8.922l-0.04-0.531
	c0.519,0.003,0.473,0.199,0.51,0.57c1.536,1.949-0.982,5.894,3.577,8.356c1.617,0.873,3.462,1.404,4.575,2.872
	c-0.48,0.277-0.951,0.567-1.408,0.877C318.79,17.732,315.484,17.409,314.439,16.561z M303.861,22.279
	c1.319,1.307,2.357,2.382,4.776,1.751c2.399-0.626,4.213-1.331,6.336,0.359c-0.414,0.514-0.808,1.043-1.177,1.592
	c-0.458-0.233-1.003-0.414-1.752-0.449c-1.856-0.086-3.761,0.54-5.645,0.092c-3.128-0.744-2.537-3.309-6.653-5.669L303.861,22.279z
	 M305.982,28.37c-4.043-0.667-4.608-6.675-5.888-6.913l-0.298-0.441c0.453-0.255,0.509-0.061,0.725,0.243
	c2.3,0.932,2.068,5.606,7.247,5.487c1.838-0.043,3.704-0.497,5.399,0.229c-0.284,0.473-0.548,0.96-0.798,1.454
	C310.334,27.234,307.308,28.588,305.982,28.37z M310.119,35.723c-0.095,0.723-0.157,1.457-0.183,2.2
	c-3.469,0.114-9.033,0.172-10.535,0.069c-0.461-0.031-0.373-0.028-0.746-0.329L310.119,35.723z M299.105,39.005
	c0.73-0.333,6.974-0.144,10.822,0.177c0.017,0.866,0.081,1.72,0.192,2.56C306.266,40.992,299.988,39.468,299.105,39.005z
	 M300.094,55.369c1.28-0.238,1.845-6.246,5.888-6.913c1.272-0.209,4.111,1.034,6.137,0.082c0.232,0.489,0.483,0.966,0.748,1.435
	c-1.614,0.556-3.369,0.149-5.099,0.108c-5.179-0.119-4.947,4.555-7.247,5.486c-0.216,0.304-0.272,0.498-0.725,0.243L300.094,55.369z
	 M308.637,52.795c-2.419-0.631-3.456,0.445-4.776,1.751l-4.115,2.324c4.116-2.36,3.525-4.924,6.653-5.669
	c1.884-0.448,3.789,0.178,5.645,0.091c0.581-0.027,1.043-0.141,1.437-0.298c0.368,0.579,0.76,1.14,1.177,1.682
	C312.668,54.064,310.917,53.39,308.637,52.795z M313.306,69.699l0.041-0.531c0.995-0.839-1.486-6.341,1.697-8.921
	c0.914-0.74,3.556-1.074,4.993-2.513c0.434,0.292,0.882,0.566,1.337,0.828c-1.112,0.995-2.622,1.486-3.974,2.214
	c-4.56,2.458-2.046,6.405-3.584,8.353C313.778,69.501,313.825,69.696,313.306,69.699z M319.498,62.706
	c-2.414,0.648-2.784,2.096-3.284,3.884l-2.426,4.056c2.41-4.087,0.627-6.023,2.978-8.218c1.415-1.322,3.381-1.72,4.951-2.713
	c0.292-0.185,0.53-0.375,0.733-0.569c0.649,0.33,1.315,0.63,1.998,0.898C323.374,61.852,321.619,62.136,319.498,62.706z
	 M332.068,72.14c-0.031,0.462-0.028,0.373-0.329,0.747l-1.94-11.464c0.723,0.095,1.457,0.157,2.2,0.183
	C332.112,65.074,332.171,70.639,332.068,72.14z M333.08,72.437c-0.333-0.73-0.144-6.974,0.177-10.822
	c0.866-0.017,1.72-0.081,2.56-0.192C335.068,65.276,333.544,71.554,333.08,72.437z M349.341,66.605
	c-0.499-1.788-0.867-3.237-3.281-3.887c-2.117-0.57-3.868-0.856-4.942-2.654c0.685-0.267,1.354-0.566,2.005-0.895
	c0.201,0.189,0.435,0.376,0.72,0.557c1.569,0.995,3.535,1.395,4.949,2.718c2.349,2.197,0.564,4.131,2.97,8.22L349.341,66.605z
	 M350.516,60.264c3.181,2.583,0.695,8.082,1.689,8.922l0.04,0.531c-0.519-0.003-0.472-0.198-0.51-0.57
	c-1.536-1.949,0.982-5.894-3.577-8.356c-1.345-0.727-2.848-1.217-3.958-2.205c0.455-0.262,0.904-0.535,1.339-0.827
	C346.979,59.188,349.606,59.526,350.516,60.264z M361.094,54.546c-1.319-1.306-2.357-2.382-4.776-1.751
	c-2.11,0.551-3.766,1.169-5.578,0.161c0.456-0.575,0.885-1.171,1.286-1.789c0.265,0.063,0.553,0.11,0.885,0.126
	c1.856,0.086,3.761-0.54,5.645-0.091c3.128,0.745,2.537,3.309,6.653,5.669L361.094,54.546z M358.973,48.455
	c4.043,0.667,4.609,6.675,5.888,6.913l0.298,0.441c-0.453,0.255-0.509,0.062-0.725-0.243c-2.3-0.932-2.067-5.606-7.247-5.486
	c-1.527,0.035-3.074,0.353-4.526,0.047c0.26-0.453,0.51-0.913,0.739-1.385C355.359,49.277,357.815,48.265,358.973,48.455z"/>
</svg>
